# xmcd CD database file
#
# Track frame offsets:
#	150
#	16633
#	34430
#	51951
#	65647
#
# Disc length: 1063 seconds
#
# Revision: 0
# Processed by: cddbd v1.5.2PL0 Copyright (c) Steve Scherf et al.
# Submitted via: CDex 2.22
#
DISCID=3e042505
DTITLE=Imany - Live at the casino de Paris - Studio
DYEAR=2019
DGENRE=Jazz
TTITLE0=Time Only Moves
TTITLE1=Come to the Rescue
TTITLE2=Hey Litle sister
TTITLE3=Make a wish
TTITLE4=Time only moves
EXTD=YEAR: 2019
EXTT0=
EXTT1=
EXTT2=
EXTT3=
EXTT4=
PLAYORDER=
